<svg xmlns="http://www.w3.org/2000/svg" viewBox="0 0 32 32">
  <defs>
    <clipPath id="bg"><rect width="32" height="32" rx="7"/></clipPath>
    <filter id="shadow" x="-20%" y="-20%" width="140%" height="140%">
      <feDropShadow dx="0" dy="0" stdDeviation="1" flood-color="#000" flood-opacity="0.5"/>
    </filter>
  </defs>
  <g clip-path="url(#bg)">
    <rect width="32" height="32" fill="#e05c00"/>
    <rect y="5"  width="32" height="2" fill="#1a0800"/>
    <rect y="6"  width="18" height="1" fill="#2e1000"/>
    <rect y="13" width="32" height="2" fill="#1a0800"/>
    <rect y="14" x="14" width="18" height="1" fill="#2e1000"/>
    <rect y="21" width="32" height="2" fill="#1a0800"/>
    <rect y="22" width="22" height="1" fill="#2e1000"/>
    <rect x="8"  width="2" height="32" fill="#1a0800"/>
    <rect x="9"  width="1" height="20" fill="#2e1000"/>
    <rect x="20" width="2" height="32" fill="#1a0800"/>
    <rect x="21" y="12" width="1" height="20" fill="#2e1000"/>
  </g>
  <g fill="none" stroke="#fff8f3" stroke-width="2" stroke-linecap="round" stroke-linejoin="round" filter="url(#shadow)">
    <path d="M16 6 6 11v10l10 5 10-5V11z"/>
    <path d="M6 11l10 5 10-5"/>
    <path d="M16 16v10"/>
  </g>
</svg>
